name rise37.2698peak67.6939fall79.5734.mot
datacolumns 19
datarows 23
range 22.69491400000000 22.73159100000000
endheader
time	ground_force1_vx	ground_force1_vy	ground_force1_vz	ground_force1_px	ground_force1_py	ground_force1_pz	ground_force2_vx	ground_force2_vy	ground_force2_vz	ground_force2_px	ground_force2_py	ground_force2_pz	ground_torque1_x	ground_torque1_y	ground_torque1_z	ground_torque2_x	ground_torque2_y	ground_torque2_z	
22.69491400000000	-30.43886200000000	802.42860900000005	52.80620300000000	0.18153200000000	0.00000000000000	0.10195500000000	-8.57346800000000	50.46403000000000	8.58875400000000	0.39600800000000	0.00000000000000	-0.07581700000000	0.00000000000000	24.02173500000000	0.00000000000000	0.00000000000000	6.02505900000000	0.00000000000000	
22.69660100000000	-31.11302400000000	800.49551599999995	52.69725500000000	0.18064700000000	0.00000000000000	0.10187200000000	-9.15137300000000	56.37564700000000	9.36431700000000	0.39937400000000	0.00000000000000	-0.07605500000000	0.00000000000000	23.97131400000000	0.00000000000000	0.00000000000000	6.64097300000000	0.00000000000000	
22.69824800000000	-31.80487900000000	798.46178999999995	52.56724900000000	0.17976900000000	0.00000000000000	0.10178700000000	-9.59635000000000	62.08434000000000	10.04964500000000	0.40250900000000	0.00000000000000	-0.07629100000000	0.00000000000000	23.91886400000000	0.00000000000000	0.00000000000000	7.20462500000000	0.00000000000000	
22.69991400000000	-32.51445100000000	796.32638299999996	52.41602600000000	0.17889600000000	0.00000000000000	0.10169800000000	-9.90331900000000	67.55302100000000	10.63813300000000	0.40543700000000	0.00000000000000	-0.07652300000000	0.00000000000000	23.86445700000000	0.00000000000000	0.00000000000000	7.70990000000000	0.00000000000000	
22.70158500000000	-33.24170100000000	794.08822999999995	52.24346800000000	0.17802800000000	0.00000000000000	0.10160600000000	-10.07355000000000	72.76996800000001	11.12853100000000	0.40817800000000	0.00000000000000	-0.07675400000000	0.00000000000000	23.80816300000000	0.00000000000000	0.00000000000000	8.15435000000000	0.00000000000000	
22.70324800000000	-33.98652600000000	791.74625000000003	52.04950100000000	0.17716600000000	0.00000000000000	0.10151000000000	-10.11366600000000	77.74600100000001	11.52421200000000	0.41074700000000	0.00000000000000	-0.07698500000000	0.00000000000000	23.75005100000000	0.00000000000000	0.00000000000000	8.53879000000000	0.00000000000000	
22.70491400000000	-34.74875600000000	789.29934000000003	51.83408900000000	0.17630800000000	0.00000000000000	0.10141200000000	-10.03438700000000	82.51029100000000	11.83218600000000	0.41316100000000	0.00000000000000	-0.07721400000000	0.00000000000000	23.69018700000000	0.00000000000000	0.00000000000000	8.86669300000000	0.00000000000000	
22.70659500000000	-35.52815100000000	786.74637800000005	51.59723900000000	0.17545600000000	0.00000000000000	0.10131000000000	-9.84914700000000	87.10539300000001	12.06199100000000	0.41543100000000	0.00000000000000	-0.07744400000000	0.00000000000000	23.62863500000000	0.00000000000000	0.00000000000000	9.14346400000000	0.00000000000000	
22.70824600000000	-36.32440200000000	784.08622400000002	51.33899600000000	0.17460800000000	0.00000000000000	0.10120600000000	-9.57273500000000	91.58203600000000	12.22456000000000	0.41756800000000	0.00000000000000	-0.07767300000000	0.00000000000000	23.56545300000000	0.00000000000000	0.00000000000000	9.37569200000000	0.00000000000000	
22.70991200000000	-37.13712600000000	781.31771200000003	51.05945000000000	0.17376500000000	0.00000000000000	0.10109800000000	-9.22005400000000	95.99414299999999	12.33118000000000	0.41958100000000	0.00000000000000	-0.07790400000000	0.00000000000000	23.50069600000000	0.00000000000000	0.00000000000000	9.57042200000000	0.00000000000000	
22.71157700000000	-37.96586800000000	778.43965700000001	50.75872600000000	0.17292600000000	0.00000000000000	0.10098800000000	-8.80508400000000	100.39444300000000	12.39259600000000	0.42148000000000	0.00000000000000	-0.07813500000000	0.00000000000000	23.43441500000000	0.00000000000000	0.00000000000000	9.73452800000000	0.00000000000000	
22.71325600000000	-38.81009600000000	775.45085500000005	50.43699200000000	0.17209100000000	0.00000000000000	0.10087400000000	-8.34010100000000	104.83090700000000	12.41830400000000	0.42327100000000	0.00000000000000	-0.07836700000000	0.00000000000000	23.36665500000000	0.00000000000000	0.00000000000000	9.87419500000000	0.00000000000000	
22.71491600000000	-39.66920200000000	772.35008000000005	50.09445200000000	0.17126000000000	0.00000000000000	0.10075800000000	-7.83514700000000	109.34414700000001	12.41607200000000	0.42496000000000	0.00000000000000	-0.07860100000000	0.00000000000000	23.29745500000000	0.00000000000000	0.00000000000000	9.99455500000000	0.00000000000000	
22.71659600000000	-40.54250100000000	769.13608599999998	49.73134900000000	0.17043100000000	0.00000000000000	0.10063800000000	-7.29777400000000	113.96580200000000	12.39166800000000	0.42655300000000	0.00000000000000	-0.07883600000000	0.00000000000000	23.22684600000000	0.00000000000000	0.00000000000000	10.09945800000000	0.00000000000000	
22.71825000000000	-41.42922900000000	765.80761199999995	49.34796200000000	0.16960600000000	0.00000000000000	0.10051700000000	-6.73301400000000	118.71786800000000	12.34878400000000	0.42805500000000	0.00000000000000	-0.07907300000000	0.00000000000000	23.15485300000000	0.00000000000000	0.00000000000000	10.19139000000000	0.00000000000000	
22.71991200000000	-42.32854400000000	762.36338100000000	48.94460500000000	0.16878400000000	0.00000000000000	0.10039200000000	-6.14354100000000	123.61282600000000	12.28913600000000	0.42947000000000	0.00000000000000	-0.07931100000000	0.00000000000000	23.08149300000000	0.00000000000000	0.00000000000000	10.27150200000000	0.00000000000000	
22.72158600000000	-43.23952300000000	758.80210399999999	48.52162800000000	0.16796400000000	0.00000000000000	0.10026500000000	-5.52998100000000	128.65444800000000	12.21268100000000	0.43080300000000	0.00000000000000	-0.07955100000000	0.00000000000000	23.00677600000000	0.00000000000000	0.00000000000000	10.33974500000000	0.00000000000000	
22.72325300000000	-44.16116300000000	755.12247900000000	48.07941200000000	0.16714600000000	0.00000000000000	0.10013600000000	-4.89132000000000	133.83905899999999	12.11793900000000	0.43205500000000	0.00000000000000	-0.07979200000000	0.00000000000000	22.93070100000000	0.00000000000000	0.00000000000000	10.39506000000000	0.00000000000000	
22.72491700000000	-45.09238400000000	751.32320100000004	47.61837000000000	0.16633000000000	0.00000000000000	0.10000400000000	-4.22535600000000	139.15710799999999	12.00235000000000	0.43323100000000	0.00000000000000	-0.08003500000000	0.00000000000000	22.85326000000000	0.00000000000000	0.00000000000000	10.43562200000000	0.00000000000000	
22.72659800000000	-46.03202500000000	747.40296000000001	47.13894600000000	0.16551400000000	0.00000000000000	0.09987000000000	-3.52915800000000	144.59485100000001	11.86265800000000	0.43433300000000	0.00000000000000	-0.08028000000000	0.00000000000000	22.77443300000000	0.00000000000000	0.00000000000000	10.45909400000000	0.00000000000000	
22.72825100000000	-46.97884500000000	743.36044700000002	46.64161100000000	0.16470000000000	0.00000000000000	0.09973300000000	-2.79949600000000	150.13601800000001	11.69526800000000	0.43536300000000	0.00000000000000	-0.08052700000000	0.00000000000000	22.69419300000000	0.00000000000000	0.00000000000000	10.46287500000000	0.00000000000000	
22.72991900000000	-47.93152800000000	739.19436099999996	46.12686400000000	0.16388700000000	0.00000000000000	0.09959500000000	-2.03321400000000	155.76332500000001	11.49657100000000	0.43632400000000	0.00000000000000	-0.08077500000000	0.00000000000000	22.61249900000000	0.00000000000000	0.00000000000000	10.44432600000000	0.00000000000000	
22.73159100000000	-48.88867800000000	734.90340700000002	45.59522700000000	0.16307300000000	0.00000000000000	0.09945500000000	-1.22753000000000	161.45977800000000	11.26320900000000	0.43721600000000	0.00000000000000	-0.08102500000000	0.00000000000000	22.52930400000000	0.00000000000000	0.00000000000000	10.40096100000000	0.00000000000000	
